<svg width="396" height="44" viewBox="0 0 396 44" fill="none" xmlns="http://www.w3.org/2000/svg">
<mask id="mask0_78_47" style="mask-type:luminance" maskUnits="userSpaceOnUse" x="194" y="0" width="29" height="44">
<path d="M194.25 0H222.281V44H194.25V0Z" fill="white"/>
</mask>
<g mask="url(#mask0_78_47)">
<path d="M222.801 22.3281L202.963 2.29169C199.129 -1.58331 191.26 5.57815 195.874 10.0834L208.426 22.3281L195.473 34.375C191.525 38.0417 198.833 45.5677 202.76 41.7604L222.801 22.3281Z" fill="#25CBCB"/>
</g>
<path d="M13.0833 42.0554L17.6458 42.1595L18.7917 42.0554L19.9583 41.7637L21.1042 41.597L22.25 41.1387L23.2917 41.0137L24.3958 40.4929L28.3125 38.1387L29.9792 36.4095L30.5625 35.597L31.1875 34.3262L31.5417 33.2845L31.875 32.3054L32.2292 29.4304L32.1042 27.5762L31.25 24.2429L30.6042 23.3262L29.125 21.597L28.0833 20.6595L27.1458 20.2012L26.125 19.5762L21.625 18.1804L20.4583 18.0137L19.3125 17.9512L18.1042 17.722H16.4375L13.375 17.097L11.25 16.0554L10.375 15.2429L10.1458 13.5137L10.4375 11.972L11.125 11.222L12 10.5762L12.9167 10.0554L13.9583 9.82621L15.7917 9.76371L17.6458 9.99288L18.6875 10.2845L19.7292 10.972L20.7083 11.7845L21.5625 12.9512L22.8333 13.7012L25.5417 13.4512L27.1042 13.5762H28.25L29.2917 13.7012L30.375 12.8887L30.8542 11.9095L30.6042 10.8054L30.5 9.72205L28.875 6.72205L27.625 4.99288L23.8125 2.32621L20.5833 1.24288L18.3333 0.784546L13.8958 0.659546L12.625 1.01371L11.4792 1.07621L10.4375 1.24288L8.25 1.93038L6.29167 3.07621L3.52083 4.99288L1.5 7.70121L0.458333 10.8679L0.291667 13.7012L0.354167 15.472L0.75 17.7845L1.66667 19.8054L3.8125 22.4512L7.72917 24.597L9.8125 25.2845L18.8542 26.3262L20.9375 27.3054L21.6875 27.9929L22.0208 29.4304L21.5625 30.8679L20.8125 31.7429L18.8542 32.597L17.0625 32.722L16.0208 32.8887L13.0833 32.597L12.1042 32.0762L11.125 31.4512L9.22917 29.3679L8.08333 28.9095L7.04167 29.0345L5.9375 28.847L1.5 29.0762L0.458333 29.5345L0 30.7637L0.1875 31.9095L0.416667 33.0554L0.75 34.097L1.85417 36.222L2.64583 36.972L3.39583 37.847L5.41667 39.1179L6.22917 39.972L7.33333 40.4929L8.47917 40.847L10.7292 41.6595L13.0833 42.0554Z" fill="#25CBCB"/>
<path d="M48.4167 40.3888L49.2917 41.4721L50.5625 41.8888H52.7917L54.125 41.4096L55.0417 40.2638L56.0833 38.2429L56.8958 35.9513L57.3542 35.0138L57.6458 33.8679L59.9583 28.3888L60.1875 27.4096L61.2083 25.1596L61.5625 24.1179L62.0208 24.0763L62.6042 25.2221L62.8958 26.2013L63.4583 27.3054L63.9792 28.3888L64.2708 29.5346L65.1875 31.6179L65.5417 32.7221L66.3958 34.8471L67.0417 35.9929L67.4375 37.0346L67.6667 38.1388L68.5417 40.2013L69.5833 41.4721L70.8958 41.9929L72.8542 41.8888L74.3125 41.3679L75.2917 40.3263L75.5208 39.2221L76.5417 37.0971L77.1875 34.8471L78.1042 32.8263L78.8542 30.5346L79.4375 29.4929L79.6667 28.3888L80.125 27.1804L80.5833 25.5138L81.8542 22.8471L83.1875 18.5971L83.8125 17.4929L84.3958 15.3679L84.9167 14.2013L85.1458 13.1179L85.7083 12.0763L86.75 8.78459L87.3958 7.80542L88.8958 2.97209L88.6667 1.57625L86.875 1.11792L80.5833 1.24292L79.5417 1.18042L78.2292 1.82625L77.3542 2.84709L77.0625 4.01375L76.5417 4.99292L75.5625 8.38875L75.0625 9.53459L74.7708 10.5763L74.0625 12.3054L71.5417 22.2846L71.0208 22.1596L70.8542 21.1179L70.2083 20.1388L70.0417 19.0554L67.9583 13.5138L67.7292 12.4304L67.2083 11.2638L67.0417 10.1179L64.625 3.49292L63.75 2.32625L62.25 1.82625L61.1667 1.76375L59.8958 2.38875L59.2083 3.55542L58.1667 5.78459L57.6458 8.03459L56.0208 12.2429L55.6875 13.5138L54.4167 16.7429L54.25 17.8471L53.8333 18.9304L53.2083 20.1388L53.0417 21.1179L52.3958 22.2846L52.0417 22.3471L48.7708 9.59709L48.1875 8.51375L47.3333 6.26375L47.1042 5.03459L46.75 4.01375L46.4583 2.84709L45.5417 1.82625L44.1042 1.11792L43.125 1.24292L39.4792 1.18042L38.5625 1.30542H36.375L35.1667 1.70125L34.875 3.03459L35.1667 4.53459L35.6875 5.61792L36.375 7.76375L36.8958 8.78459L37.1875 9.99292L37.75 10.9721L38.8542 14.2638L39.375 15.3679L39.6667 16.4096L40.1667 17.5554L40.4167 18.5971L41.7292 21.7638L41.8958 22.8471L42.4792 24.0763L42.6458 25.1596L46.9167 35.9513L47.5 38.2013L48.4167 40.3888Z" fill="#25CBCB"/>
<path d="M90.0879 39.972L90.3796 41.1804L91.5254 41.472H96.6087L98.1087 41.6595L99.4212 41.0762L100.463 40.0345L101.442 38.0762L102.421 36.972L103.817 36.4095L104.963 36.5137L108.192 36.472L109.4 36.6387L110.734 36.472H111.755L112.963 36.5762L115.692 36.472L117.588 37.097L118.796 38.0137L119.088 39.0554L119.713 40.097L120.692 41.0137L122.192 41.597L123.234 41.472L125.255 41.6595L128.817 41.5345L129.859 41.1804L130.088 39.972L129.755 38.5345L129.338 37.4929L128.588 36.5137L128.255 35.3679L127.671 34.4929L127.317 33.4095L126.338 31.3262L125.942 30.2429L125.359 29.2637L124.567 27.1179L123.921 26.2012L123.463 25.0554L122.942 24.0762L122.546 22.9095L122.025 22.0554L121.671 20.8887L121.046 19.8679L120.588 18.8887L120.005 17.9095L119.713 16.8054L118.567 14.7845L118.213 13.7012L117.171 11.4929L116.9 10.5762L116.025 8.55538L114.88 6.43038L113.963 4.24288L113.442 3.36788L113.088 2.28455L112.046 1.18038L110.088 0.659546L108.255 1.24288L107.15 2.28455L106.796 3.30538L104.317 8.51371L103.692 9.53455L100.463 16.8054L100.171 17.7845L99.5462 18.8262L98.6087 20.8887L97.7546 22.3887L97.3587 23.4929L96.5462 24.9929L96.1921 26.2012L95.6712 27.1179L95.2754 28.2845L93.6712 31.2637L91.9837 35.472L91.2962 36.4095L90.7754 37.5554L90.0879 39.972ZM107.9 27.3054L106.796 26.8262L106.63 25.6804L108.942 20.4304L109.463 19.5137L110.213 18.9304L110.9 19.3887L111.65 21.6387L112.275 22.6179L112.505 23.5554L113.088 24.7012L113.484 25.7429L113.38 26.7845L112.4 27.2429L107.9 27.3054Z" fill="#25CBCB"/>
<path d="M135.451 39.7429L135.91 40.9513L137.118 41.4096L138.264 41.5346L141.68 41.4721L142.93 41.5971H144.16L145.305 40.9513L145.826 39.7429L145.889 37.4513L145.764 36.3471L145.93 35.3054L145.826 34.0346V32.8263L146.222 31.8471L147.785 31.2638L149.055 31.0971L150.785 31.2638L153.785 31.2221L156.139 30.7638L159.493 29.7846L161.451 28.5554L162.368 27.8679L164.097 26.2013L165.93 23.4304L166.451 22.3888L166.868 21.3679L167.389 18.9929L167.493 17.9513L167.555 14.5554L166.514 10.0554L165.368 7.99292L164.618 7.01375L163.868 6.20125L163.222 5.32625L162.243 4.47209L160.514 3.30542L158.451 2.22209L157.243 1.99292L156.076 1.53459L155.055 1.30542L137.805 1.24292L136.243 1.76375L135.68 2.84709L135.555 4.05542V6.43042L135.389 7.47209V8.55542L135.555 9.76375V15.6596L135.451 16.8054L135.555 17.8471L135.451 19.1179L135.618 21.4721L135.389 23.0346L135.555 24.7638L135.451 25.8471V28.2846L135.618 29.3679L135.451 31.6804L135.618 35.3054L135.326 36.4721L135.555 37.5554L135.389 38.6596L135.451 39.7429ZM147.66 21.8679L146.576 21.3679L145.889 20.2013L145.764 12.2013L146.451 10.9304L147.618 10.4721L149.055 10.3471L153.66 10.5763L154.639 11.0971L155.514 11.7221L156.43 12.5971L157.014 13.5763L157.535 16.2846L156.889 18.9304L155.555 20.5554L154.639 21.1804L153.722 21.7013L148.993 21.9929L147.66 21.8679Z" fill="#25CBCB"/>
<mask id="mask1_78_47" style="mask-type:luminance" maskUnits="userSpaceOnUse" x="171" y="0" width="30" height="44">
<path d="M171.584 0H200.167V44H171.584V0Z" fill="white"/>
</mask>
<g mask="url(#mask1_78_47)">
<path d="M200.684 22.3281L180.845 2.29169C177.012 -1.58331 169.142 5.57815 173.762 10.0834L186.309 22.3281L173.355 34.375C169.408 38.0417 176.72 45.5677 180.642 41.7604L200.684 22.3281Z" fill="#FFA03A"/>
</g>
<path d="M256.826 40.5554L258.368 41.4721L259.993 41.6596L261.264 41.2429L261.826 40.0971L261.951 19.0554L261.764 18.0763V12.3679L261.951 10.9721L261.764 2.97209L261.201 1.82625L260.035 1.18042L252.889 1.24292L251.805 1.86792L251.16 3.07625L251.118 4.30542L251.285 5.22209L251.118 7.63875L251.222 8.90959L251.118 19.2221L250.764 20.2013L249.889 19.8054L245.805 15.7013L244.201 14.4513L232.826 2.97209L231.972 2.28459L230.639 1.57625L228.91 1.18042L227.597 1.76375L227.076 2.84709V20.3263L227.014 21.3054L227.139 23.6596L226.951 24.6388L227.076 34.0971L226.951 35.2013L227.076 40.0346L227.597 41.1388L228.805 41.5346L231.16 41.6596L232.43 41.5346L234.68 41.7013L235.889 41.6596L237.035 41.0763L237.618 39.2846L237.68 24.7013L237.785 23.5554L238.201 22.5763L238.951 22.8471L239.701 23.8471L243.785 27.7638L244.535 28.6179L245.514 29.2638L254.451 38.1388L255.951 39.8054L256.826 40.5554Z" fill="#FF9C31"/>
<path d="M287.824 42.2221L291.053 42.1596L294.512 41.7013L298.824 40.2638L300.741 39.2221L301.595 38.5346L302.699 38.0138L304.303 36.6388L305.053 35.5971L305.866 34.7846L308.408 30.9304L309.262 28.7429L309.72 26.5554L309.783 25.5138L310.074 24.3471L310.137 23.1388L310.366 21.4721L310.178 18.5971L309.783 16.2221L308.345 11.9096L307.241 9.76375L305.97 8.03459L304.366 6.26375L302.699 4.80542L301.366 3.88875L299.637 3.13875L298.783 2.51375L294.345 1.11792L290.991 0.55542L289.428 0.49292L283.324 1.34709L279.012 2.97209L278.137 3.59709L277.095 4.11792L275.137 5.55542L272.324 8.84709L270.533 11.9096L269.658 14.0971L268.678 18.5346L268.512 23.2013L268.678 24.4096L268.97 25.4513L269.095 26.5554L269.595 28.7429L272.262 33.9929L272.949 34.6804L273.699 35.5971L274.553 36.4096L275.199 37.1596L277.095 38.6596L281.595 40.9513L283.262 41.5346L284.533 41.6596L286.616 42.1179L287.824 42.2221ZM291.053 32.0138H287.887L286.616 31.8471L284.533 30.9929L283.616 30.4721L282.053 29.2013L281.303 28.3888L280.491 27.3054L280.22 26.3679L279.699 25.3263L279.241 23.2013V19.6804L279.512 18.6596L279.699 17.5554L280.158 16.5138L280.491 15.4721L281.887 13.6388L284.762 11.6804L285.512 11.3888L287.762 10.8054L289.387 10.7013L292.137 11.0346L293.178 11.2638L294.22 11.7221L296.012 12.9929L298.262 15.3679L298.949 17.5554L299.47 18.6596L299.637 19.6804L299.533 23.2013L299.053 25.3263L298.658 26.3679L298.033 27.4096L297.678 28.2846L296.866 29.2013L294.095 31.0971L293.074 31.3888L292.199 31.7846L291.053 32.0138Z" fill="#FF9C31"/>
<path d="M328.734 40.4929L329.672 41.5346L331.047 42.0554L332.193 42.1596L333.755 41.4721L334.734 40.5554L335.089 39.4513L336.068 37.2013L336.589 36.1179L337.151 35.1388L338.089 33.0554L338.422 32.0138L341.88 24.6388L342.568 22.3888L343.776 20.3263L344.422 18.1388L345.047 16.9721L345.339 15.9929L345.63 14.9096L346.443 13.8679L346.734 12.7638L347.484 11.9096L348.339 9.65959L348.63 8.61792L349.255 7.63875L349.672 6.49292L350.234 5.38875L350.464 4.40959L351.047 3.03459L350.714 1.57625L349.714 1.24292H342.922L341.589 1.70125L340.568 2.80542L340.276 3.82625L333.401 20.7221L332.839 21.8263L332.547 22.8471L331.859 23.8888L331.172 24.0138L330.693 22.9721L329.943 20.7846L329.484 19.7429L329.151 18.5971L328.734 17.6596L328.109 16.6388L327.422 14.3263L326.901 13.4096L326.484 12.3679L326.255 11.2221L324.234 7.05542L324.068 5.97209L323.484 4.86792L323.089 3.82625L322.568 2.90959L321.589 1.76375L320.276 1.30542L317.047 1.11792L316.068 1.24292L315.026 1.11792L313.818 1.18042L312.609 1.70125L312.484 2.97209L312.714 4.34709L313.234 5.38875L314.089 7.57625L314.609 8.61792L314.964 9.65959L315.589 10.7429L316.526 12.9929L317.089 14.0346L318.818 18.2429L319.401 19.1596L323.214 27.7638L323.484 28.7429L324.484 30.8054L324.818 31.9096L326.318 35.2429L326.901 36.1179L327.193 37.3263L328.734 40.4929Z" fill="#FF9C31"/>
<path d="M372.893 42.2221L376.122 42.1596L379.58 41.7013L383.893 40.2638L385.809 39.2221L386.663 38.5346L387.768 38.0138L389.372 36.6388L390.122 35.5971L390.934 34.7846L393.476 30.9304L394.33 28.7429L394.788 26.5554L394.851 25.5138L395.143 24.3471L395.205 23.1388L395.434 21.4721L395.247 18.5971L394.851 16.2221L393.413 11.9096L392.309 9.76375L391.038 8.03459L389.434 6.26375L387.768 4.80542L386.434 3.88875L384.705 3.13875L383.851 2.51375L379.413 1.11792L376.059 0.55542L374.497 0.49292L368.393 1.34709L364.08 2.97209L363.205 3.59709L362.163 4.11792L360.205 5.55542L357.393 8.84709L355.601 11.9096L354.726 14.0971L353.747 18.5346L353.58 23.2013L353.747 24.4096L354.038 25.4513L354.163 26.5554L354.663 28.7429L357.33 33.9929L358.018 34.6804L358.768 35.5971L359.622 36.4096L360.268 37.1596L362.163 38.6596L366.663 40.9513L368.33 41.5346L369.601 41.6596L371.684 42.1179L372.893 42.2221ZM376.122 32.0138H372.955L371.684 31.8471L369.601 30.9929L368.684 30.4721L367.122 29.2013L366.372 28.3888L365.559 27.3054L365.288 26.3679L364.768 25.3263L364.309 23.2013V19.6804L364.58 18.6596L364.768 17.5554L365.226 16.5138L365.559 15.4721L366.955 13.6388L369.83 11.6804L370.58 11.3888L372.83 10.8054L374.455 10.7013L377.205 11.0346L378.247 11.2638L379.288 11.7221L381.08 12.9929L383.33 15.3679L384.018 17.5554L384.538 18.6596L384.705 19.6804L384.601 23.2013L384.122 25.3263L383.726 26.3679L383.101 27.4096L382.747 28.2846L381.934 29.2013L379.163 31.0971L378.143 31.3888L377.268 31.7846L376.122 32.0138Z" fill="#FF9C31"/>
</svg>
